<svg version="1.1" xmlns="http://www.w3.org/2000/svg" style="display: block;" viewBox="0 0 2048 876" width="664" height="284" preserveAspectRatio="none">
<path transform="translate(0,0)" fill="rgb(11,40,86)" d="M 651.951 79.3416 C 662.155 79.0928 676.313 79.8505 687.133 79.9099 L 769.503 79.9855 L 1067.14 79.9929 C 1128.02 79.9938 1191.57 80.931 1252.18 79.0176 C 1251.15 99.6236 1255.42 177.117 1250.34 190.623 C 1246.09 201.898 1173.13 290.697 1159.11 308.586 L 859.931 690.289 C 901.636 688.851 952.282 690.399 994.961 690.216 L 1070.8 690.015 C 1089.95 689.833 1110.01 689.073 1129.09 689.964 C 1115.43 694.557 1102.74 701.104 1089.54 706.907 C 1076.89 712.467 1064.14 717.306 1051.25 722.234 C 924.835 771.012 768.835 794.268 633.571 786.889 C 634.833 767.706 633.904 748.463 634.018 729.256 C 634.066 720.951 634.91 716.396 640.244 709.717 C 668.851 673.894 696.413 637.365 725.078 601.577 L 851.336 441.8 L 968.571 293.005 L 1007.02 244.31 C 1012.75 237.118 1022.22 224.531 1028.58 218.397 C 982.077 216.693 925.689 218.114 878.422 218.119 L 779.135 218.602 C 736.18 218.512 693.386 217.745 650.351 218.243 C 651.781 172.966 650.02 126.921 650.51 81.5775 C 650.51 81.577 651.827 79.5342 651.951 79.3416 z"/>
<path transform="translate(0,0)" fill="rgb(11,40,86)" d="M 1291.98 80.0315 C 1302.99 78.6643 1343.87 79.8158 1357.22 80.0357 C 1396.41 80.6814 1437.8 78.8322 1476.59 79.9679 C 1485.44 92.5521 1502.05 123.203 1510.54 137.882 L 1574.9 249.227 L 1632.75 348.903 C 1643.41 367.057 1655.95 386.733 1665.46 405.267 C 1683.22 377.453 1702.93 340.968 1719.64 311.82 L 1804.6 165.168 L 1835.68 111.309 C 1840.28 103.328 1848.27 88.3856 1853.67 81.6632 C 1862.09 78.1778 2005.86 79.9255 2026.21 79.9121 C 1974.57 171.384 1920.44 262.339 1867.74 353.431 C 1860.34 367.67 1847.36 387.83 1838.86 402.371 L 1777.1 508.415 C 1772.39 516.511 1748.67 554.789 1748.05 559.818 C 1744.95 585.115 1746.29 631.552 1746.31 657.148 L 1746.75 834.034 C 1715.97 834.347 1685.88 833.259 1655.18 833.291 C 1626.89 833.32 1600.47 834.092 1572.11 833.152 L 1572.09 636.117 C 1572.05 624.738 1573.23 570.601 1571.18 562.649 C 1568.17 550.952 1538.66 504.436 1530.68 490.488 L 1365.68 207.176 L 1319.24 128.082 C 1311.86 115.582 1297.65 92.8006 1291.98 80.0315 z"/>
<path transform="translate(0,0)" fill="rgb(11,40,86)" d="M 581.428 202.721 C 597.228 220.046 609.108 294.53 609.006 320.056 C 608.518 442.665 521.248 567.901 454.026 664.713 C 435.843 690.899 418.273 715.402 399.819 740.437 L 356.195 799.681 C 347.827 811.081 330.74 840.312 315.382 841.525 C 310.791 841.887 301.817 837.618 298.767 833.715 C 282.735 813.204 265.518 792.546 251.57 770.593 C 247.487 761.042 249.552 716.931 249.612 704.25 L 249.541 570.639 C 249.47 542.251 249.326 513.279 249.964 484.869 C 250.03 481.927 251.414 472.194 253.261 470.352 C 256.573 467.617 263.249 465.529 267.489 465.351 C 294.558 464.213 321.73 466.002 348.842 464.843 C 356.277 464.525 367.911 464.98 373.427 470.41 C 378.668 482.151 376.7 519.726 376.687 534.192 C 376.853 561.996 376.819 589.802 376.586 617.606 C 383.906 608.71 394.848 592.656 401.829 582.608 C 435.511 534.13 468.419 481.983 492.55 428.148 C 519.798 367.361 530.178 310.455 504.093 246.411 C 542.233 239.958 554.977 231.21 581.428 202.721 z"/>
<path transform="translate(0,0)" fill="rgb(11,40,86)" d="M 299.12 28.4693 C 343.244 26.9318 389.292 33.6846 429.269 53.0735 C 403.64 74.9354 392.884 96.1007 388.244 129.455 C 363.14 121.245 343.715 117.092 316.998 116.49 C 197.218 113.789 96.144 225.019 110.237 343.858 C 115.483 388.101 141.412 445.194 163.817 484.14 C 171.142 496.902 178.741 509.505 186.608 521.94 C 190.124 527.528 207.347 553.746 207.719 558.063 C 210.264 587.587 209.527 630.134 209.204 659.316 C 209.686 677.171 209.585 695.036 208.901 712.884 C 186.387 684.804 163.308 649.663 143.403 619.849 C 92.2367 543.213 29.7532 440.139 20.2212 347.239 C 13.7764 269.656 39.0562 191.428 89.8368 132.662 C 146.527 67.0577 214.717 36.5616 299.12 28.4693 z"/>
<path transform="translate(0,0)" fill="rgb(80,207,121)" d="M 1471.56 519.345 L 1481.17 518.9 C 1477.33 539.468 1462.99 581.121 1456 603.006 C 1442.81 644.273 1430.19 688.881 1415.95 729.387 C 1401.07 716.167 1382.57 691.704 1368.25 675.731 C 1351.19 685.653 1335.51 697.538 1318.7 707.666 C 1102.71 837.86 817.073 872.975 575.223 815.69 C 561.801 812.727 546.918 809.737 533.84 805.947 C 542.386 805.822 552.92 807.614 561.703 808.423 C 574.107 809.567 586.455 809.945 598.815 810.863 C 652.166 814.823 701.603 814.612 754.933 811.169 C 883.102 802.895 1009.97 772.27 1126.51 717.955 C 1157.17 703.665 1194.08 682.104 1223.12 664.252 C 1241.39 653.02 1292.78 620.158 1305.97 604.932 C 1295.9 587.539 1272.5 568.164 1261.22 549.958 C 1279.13 545.253 1317.83 541.443 1337.14 538.769 L 1471.56 519.345 z"/>
<path transform="translate(0,0)" fill="rgb(80,207,121)" d="M 484.509 65.2851 C 514.978 60.8172 543.184 73.8863 558.653 100.526 C 568.938 117.887 571.699 138.69 566.299 158.132 C 561.284 176.95 548.932 192.971 532.01 202.609 C 506.532 217.131 486.467 212.014 460.586 204.904 C 455.092 209.002 400.486 265.101 397.776 269.198 C 405.076 293.227 412.629 300.319 410.467 329.042 C 408.534 353.318 396.984 375.816 378.384 391.536 C 357.367 409.486 334.011 417.397 306.5 415.31 C 212.962 410.366 187.644 283.891 259.876 238.734 C 282.925 224.351 310.89 220.122 337.162 227.047 C 346.229 229.427 354.381 233.307 363.688 235.432 C 367.83 234.282 376.453 225.059 379.33 221.729 C 394.704 203.936 413.357 189.151 429.064 171.74 C 425.716 163.999 423.455 155.832 422.345 147.471 C 417.094 107.018 443.373 70.2953 484.509 65.2851 z"/>
<path transform="translate(0,0)" fill="rgb(11,40,86)" d="M 1108.04 825.483 C 1143.63 815.085 1178.64 802.818 1212.94 788.736 C 1227.74 782.736 1250.1 771.47 1263.38 767.162 C 1261.77 786.961 1262.31 813.182 1262.67 833.244 C 1213.85 831.774 1162.79 834.507 1114.57 832.956 C 1113.4 830.635 1110 827.545 1108.04 825.483 z"/>
<path transform="translate(0,0)" fill="rgb(0,1,4)" d="M 1079.45 833.752 C 1088.79 830.707 1098.56 828.123 1108.04 825.483 C 1110 827.545 1113.4 830.635 1114.57 832.956 L 1079.45 833.752 z"/>
</svg>